<svg width="25" height="20" viewBox="0 0 25 20" fill="none" xmlns="http://www.w3.org/2000/svg">
<path fill-rule="evenodd" clip-rule="evenodd" d="M7.8625 19.9997C17.2962 19.9997 22.4562 12.3042 22.4562 5.63146C22.4562 5.4124 22.4562 5.19498 22.4412 4.97838C23.445 4.26458 24.3113 3.37832 25 2.36425C24.065 2.77283 23.0712 3.04079 22.055 3.15892C23.125 2.52759 23.9263 1.53572 24.31 0.365344C23.3025 0.953607 22.2012 1.36878 21.0525 1.59154C19.11 -0.441547 15.8612 -0.540051 13.795 1.37242C12.4637 2.60556 11.8975 4.44415 12.3112 6.19786C8.1875 5.99358 4.345 4.07621 1.74 0.921985C0.37875 3.2295 1.075 6.18036 3.32875 7.6621C2.5125 7.63871 1.71375 7.42234 1 7.03099V7.09508C1.00125 9.49861 2.7225 11.5682 5.115 12.0444C4.36 12.2475 3.5675 12.2769 2.8 12.1305C3.47125 14.1882 5.3975 15.5976 7.59125 15.6382C5.775 17.0436 3.53125 17.8068 1.22125 17.8043C0.81375 17.8031 0.40625 17.7797 0 17.7317C2.34625 19.2134 5.075 19.9998 7.8625 19.9961" fill="#222222"/>
</svg>
