<svg width="45" height="45" viewBox="0 0 45 45" fill="none" xmlns="http://www.w3.org/2000/svg">
<path d="M45 10.2678V23.8898C45 23.8898 42.0846 24.4642 41.484 24.5397C40.8853 24.6151 39.0038 25.2226 37.6402 23.912C35.5374 21.8966 28.0662 14.4666 28.0662 14.4666C28.0662 14.4666 26.778 13.2025 24.7096 14.295C22.8109 15.2957 19.9963 16.7623 18.8207 17.3334C16.5983 18.5163 14.7564 16.6396 14.7564 15.21C14.7564 14.1011 15.4483 13.3485 16.4374 12.795C19.1181 11.17 24.7681 7.9986 27.1213 6.74826C28.5517 5.98749 29.5823 5.9223 31.5461 7.57667C33.9647 9.61075 36.1171 11.4649 36.1171 11.4649C36.1171 11.4649 36.8191 12.0508 37.9387 11.8148C40.688 11.2335 45 10.2678 45 10.2678ZM15.2625 33.3489C15.6243 32.4194 15.5033 31.3797 14.8097 30.6664C14.1864 30.0284 13.2763 29.8602 12.4086 30.0591C12.6513 29.1984 12.5173 28.2824 11.8906 27.6359C11.2654 26.9995 10.3571 26.828 9.48944 27.0287C9.73032 26.1693 9.59667 25.2534 8.96964 24.6088C7.98778 23.6017 6.28946 23.6449 5.17377 24.7084C4.06398 25.7734 3.35306 27.7027 4.34354 28.8384C5.33239 29.9684 6.4686 29.2809 7.33478 29.0835C7.09381 29.9428 6.37181 30.7422 7.26097 31.8671C8.14931 32.9925 9.38593 32.3097 10.253 32.1141C10.0112 32.9702 9.32074 33.8498 10.1758 34.8928C11.0385 35.9389 12.4515 35.3815 13.3848 35.0916C13.0246 36.0177 12.2537 37.0159 13.2442 38.1345C14.2331 39.2611 16.5185 38.7399 17.6348 37.6748C18.7482 36.6098 18.855 34.922 17.8758 33.9118C17.1998 33.2186 16.1919 33.0574 15.2625 33.3489ZM35.6318 26.262C27.5619 18.1921 31.3576 21.9894 27.0148 17.6372C27.0148 17.6372 25.7096 16.3378 23.9894 17.0926C22.7818 17.6218 21.2271 18.343 20.0573 18.8935C18.7719 19.5676 17.8468 19.7763 17.4124 19.7733C14.9273 19.7571 12.9111 17.7597 12.9111 15.2771C12.9111 13.6666 13.7662 12.2644 15.0414 11.4685C16.8346 10.2276 20.9621 8.03219 20.9621 8.03219C20.9621 8.03219 19.7047 6.43883 16.9502 6.43883C14.1964 6.43883 8.44312 10.2079 8.44312 10.2079C8.44312 10.2079 6.81099 11.2533 4.48436 10.3117L0 8.75011V24.3375C0 24.3375 1.28048 24.7081 2.43104 25.1781C2.69089 24.437 3.11018 23.7527 3.69182 23.1875C5.6006 21.3694 8.76444 21.3505 10.5011 23.1388C11.0242 23.6823 11.3893 24.3308 11.5756 25.0476C12.2754 25.2636 12.9092 25.6462 13.4186 26.171C13.9433 26.711 14.307 27.3631 14.4949 28.0763C15.1938 28.2925 15.8267 28.6765 16.3378 29.2017C16.9134 29.7952 17.2968 30.5121 17.4759 31.2889C18.2065 31.5017 18.8667 31.8977 19.3985 32.4413C20.4422 33.5134 20.8127 34.9678 20.5882 36.3708C20.59 36.3708 20.5935 36.3708 20.5951 36.3739C20.6122 36.3963 21.2418 37.0981 21.6344 37.494C22.4038 38.2641 23.6601 38.2641 24.4318 37.494C25.1985 36.7241 25.2019 35.4703 24.4318 34.6965C24.4042 34.669 21.6561 31.7944 21.8772 31.5715C22.0968 31.3502 25.5981 34.9934 25.6633 35.06C26.4317 35.8286 27.6872 35.8286 28.4591 35.06C29.2291 34.2902 29.2275 33.0363 28.4591 32.2644C28.4213 32.2284 28.2637 32.0774 28.2052 32.0173C28.2052 32.0173 24.7337 28.9248 24.998 28.6606C25.2654 28.3948 29.5775 32.4188 29.5845 32.4188C30.3596 33.1169 31.5535 33.1117 32.2992 32.3656C33.0248 31.6402 33.0403 30.4926 32.3971 29.7193C32.3835 29.6782 29.1109 26.2581 29.3663 26.0008C29.6254 25.7401 32.8636 29.0745 32.8704 29.0814C33.6371 29.8498 34.8943 29.8498 35.6662 29.0814C36.4346 28.3129 36.4346 27.0575 35.6662 26.2822C35.6557 26.2756 35.642 26.2687 35.6318 26.262Z" fill="#333333"/>
</svg>
