<svg width="22" height="22" viewBox="0 0 22 22" fill="none" xmlns="http://www.w3.org/2000/svg">
<path fill-rule="evenodd" clip-rule="evenodd" d="M2.78709 2.10136C2.42888 1.97542 2.03641 2.16371 1.91047 2.52191C1.78454 2.88012 1.97282 3.27259 2.33103 3.39852L2.57047 3.48271C3.18245 3.69787 3.58463 3.84045 3.88057 3.98566C4.15853 4.12204 4.28106 4.23244 4.36178 4.35056C4.44452 4.47164 4.50841 4.63794 4.54447 4.97101C4.5822 5.31954 4.58313 5.77348 4.58313 6.45177V8.83665C4.58313 11.5331 4.64109 12.4229 5.4353 13.2607C6.2295 14.0983 7.50775 14.0983 10.0643 14.0983H14.9253C16.3562 14.0983 17.0716 14.0983 17.5773 13.6862C18.0831 13.274 18.2275 12.5733 18.5164 11.1719L18.9745 8.94917C19.2927 7.35503 19.4518 6.55797 19.0448 6.02897C18.6379 5.49998 17.2475 5.49998 15.703 5.49998H5.95129C5.94516 5.25218 5.93353 5.02673 5.91148 4.82305C5.86223 4.36803 5.75551 3.95304 5.49703 3.57479C5.23653 3.19358 4.89017 2.94944 4.48626 2.75125C4.10852 2.5659 3.62852 2.39716 3.06337 2.19849L2.78709 2.10136ZM11.9167 7.56248C12.2963 7.56248 12.6042 7.87029 12.6042 8.24998V9.39581H13.75C14.1297 9.39581 14.4375 9.70363 14.4375 10.0833C14.4375 10.463 14.1297 10.7708 13.75 10.7708H12.6042V11.9166C12.6042 12.2963 12.2963 12.6041 11.9167 12.6041C11.537 12.6041 11.2292 12.2963 11.2292 11.9166V10.7708H10.0833C9.70364 10.7708 9.39582 10.463 9.39582 10.0833C9.39582 9.70363 9.70364 9.39581 10.0833 9.39581H11.2292V8.24998C11.2292 7.87029 11.537 7.56248 11.9167 7.56248Z" fill="#474747"/>
<path d="M6.875 16.5C7.63439 16.5 8.25 17.1156 8.25 17.875C8.25 18.6344 7.63439 19.25 6.875 19.25C6.11561 19.25 5.5 18.6344 5.5 17.875C5.5 17.1156 6.11561 16.5 6.875 16.5Z" fill="#474747"/>
<path d="M15.125 16.5001C15.8844 16.5001 16.5 17.1157 16.5 17.8751C16.5 18.6345 15.8844 19.2501 15.125 19.2501C14.3656 19.2501 13.75 18.6345 13.75 17.8751C13.75 17.1157 14.3656 16.5001 15.125 16.5001Z" fill="#474747"/>
</svg>
