<svg width="27" height="27" viewBox="0 0 27 27" fill="none" xmlns="http://www.w3.org/2000/svg">
<path d="M16.8541 9.19404C17.9496 9.14066 18.1181 10.9356 16.9159 10.7783C15.9187 10.7502 15.7923 9.22214 16.8541 9.19404Z" fill="white"/>
<path d="M20.4439 13.4693C20.531 7.04511 17.958 6.21365 12.09 6.57038C8.04785 6.25859 6.46076 9.32039 6.44954 12.9412C6.23045 16.4861 7.32313 20.9664 11.7361 20.59C17.2445 20.4918 20.6996 19.9327 20.4439 13.4693ZM10.8119 2.41309C17.1209 1.82601 24.4243 2.73051 24.5113 10.6266C24.7332 14.2614 24.8512 18.1575 23.0703 21.4552C21.1742 24.6799 18.0141 24.5451 14.7276 24.621C11.8372 24.7361 8.85684 24.9861 6.07033 24.0395C3.23044 23.0564 2.45796 20.9131 2.51976 18.1097C2.42145 15.6968 2.32313 13.2895 2.36527 10.8738C2.50571 5.14903 5.00571 2.28107 10.8119 2.41309Z" fill="#222222"/>
<path d="M12.09 6.57C17.958 6.21326 20.5282 7.04472 20.4439 13.4689C20.6995 19.9324 17.2445 20.4886 11.7388 20.5897C7.3231 20.9661 6.23323 16.4829 6.45233 12.9408C6.46076 9.32001 8.04783 6.25821 12.09 6.57ZM19.2079 13.6711C19.2079 9.69362 18.7192 7.58686 14.2023 7.78911C12.8596 7.92113 11.2894 7.72169 9.94109 8.17957C7.23322 9.5026 7.60683 13.1402 7.85683 15.6627C8.10121 19.7385 11.4804 19.6178 14.6433 19.1627C18.5282 18.9577 19.2445 17.2807 19.2079 13.6711Z" fill="white"/>
<path d="M13.9272 11.0618C11.0676 10.9158 10.1856 15.6264 13.3232 15.7529C16.2727 15.6826 16.7249 11.9017 13.9272 11.0618ZM13.3289 9.98038C18.267 9.64612 17.9637 16.9439 13.3064 16.8933C8.89346 16.7585 9.30639 10.3737 13.3289 9.98038Z" fill="white"/>
<path d="M13.326 15.7531C10.1883 15.6239 11.0676 10.9132 13.9299 11.062C16.7249 11.9019 16.2726 15.6828 13.326 15.7531Z" fill="#222222"/>
<path d="M14.2024 7.78954C18.7192 7.58448 19.2108 9.69403 19.208 13.6715C19.2417 17.2811 18.5282 18.9581 14.6434 19.1631C11.4805 19.6182 8.10124 19.739 7.85686 15.6631C7.60685 13.1379 7.23605 9.503 9.94112 8.17998C11.2894 7.72213 12.8597 7.92156 14.2024 7.78954ZM13.3091 16.8935C17.9636 16.944 18.2698 9.64627 13.3316 9.98054C9.30628 10.3738 8.89338 16.7586 13.3091 16.8935ZM16.9158 10.7783C18.1181 10.9356 17.9495 9.14345 16.854 9.19402C15.7922 9.22212 15.9187 10.7502 16.9158 10.7783Z" fill="#222222"/>
</svg>
