<svg width="22" height="22" viewBox="0 0 22 22" fill="none" xmlns="http://www.w3.org/2000/svg">
<path d="M9.20116 4.87324L9.79607 5.93926C10.333 6.90128 10.1175 8.16329 9.27183 9.0089C9.27183 9.0089 8.24625 10.0346 10.1058 11.8943C11.9648 13.7533 12.9912 12.7283 12.9912 12.7283C13.8368 11.8826 15.0988 11.6671 16.0608 12.204L17.1268 12.7989C18.5796 13.6096 18.7511 15.6468 17.4743 16.9238C16.707 17.691 15.7671 18.288 14.728 18.3274C12.9789 18.3937 10.0085 17.9511 7.02875 14.9714C4.04906 11.9916 3.60638 9.0212 3.67269 7.27208C3.71208 6.23305 4.30909 5.29313 5.07635 4.52588C6.35322 3.249 8.39043 3.42057 9.20116 4.87324Z" stroke="#222222" stroke-width="2" stroke-linecap="round"/>
</svg>
