<svg width="22" height="22" viewBox="0 0 22 22" fill="none" xmlns="http://www.w3.org/2000/svg">
<path d="M1.83331 11.0001C1.83331 7.54311 1.83331 5.81464 2.90725 4.74069C3.9812 3.66675 5.70968 3.66675 9.16665 3.66675H12.8333C16.2902 3.66675 18.0188 3.66675 19.0927 4.74069C20.1666 5.81464 20.1666 7.54311 20.1666 11.0001C20.1666 14.457 20.1666 16.1856 19.0927 17.2594C18.0188 18.3334 16.2902 18.3334 12.8333 18.3334H9.16665C5.70968 18.3334 3.9812 18.3334 2.90725 17.2594C1.83331 16.1856 1.83331 14.457 1.83331 11.0001Z" stroke="#222222" stroke-width="2"/>
<path d="M5.5 7.33325L7.47899 8.98241C9.16257 10.3854 10.0044 11.0869 11 11.0869C11.9956 11.0869 12.8375 10.3854 14.521 8.98241L16.5 7.33325" stroke="#222222" stroke-width="2" stroke-linecap="round"/>
</svg>
