<svg width="55" height="55" viewBox="0 0 55 55" fill="none" xmlns="http://www.w3.org/2000/svg">
<path d="M20.57 42.9002C20.57 43.8114 21.3087 44.5502 22.22 44.5502C23.1312 44.5502 23.87 43.8114 23.87 42.9002H20.57ZM22.22 37.992L20.5712 37.9288C20.5704 37.9499 20.57 37.9708 20.57 37.992H22.22ZM27.5 33.086L27.4419 34.7349C27.4806 34.7362 27.5194 34.7362 27.5581 34.7349L27.5 33.086ZM32.78 37.992H34.43C34.43 37.9708 34.4296 37.9499 34.4289 37.9288L32.78 37.992ZM31.13 42.9002C31.13 43.8114 31.8688 44.5502 32.78 44.5502C33.6912 44.5502 34.43 43.8114 34.43 42.9002H31.13ZM22.22 41.2502C21.3087 41.2502 20.57 41.9889 20.57 42.9002C20.57 43.8114 21.3087 44.5502 22.22 44.5502V41.2502ZM32.78 44.5502C33.6912 44.5502 34.43 43.8114 34.43 42.9002C34.43 41.9889 33.6912 41.2502 32.78 41.2502V44.5502ZM22.22 44.5502C23.1312 44.5502 23.87 43.8114 23.87 42.9002C23.87 41.9889 23.1312 41.2502 22.22 41.2502V44.5502ZM20.9 42.9002V41.2502C20.8806 41.2502 20.8613 41.2504 20.8419 41.251L20.9 42.9002ZM12.98 35.539H11.33C11.33 35.5596 11.3304 35.5805 11.3312 35.6014L12.98 35.539ZM14.63 20.7857C14.63 19.8744 13.8913 19.1357 12.98 19.1357C12.0687 19.1357 11.33 19.8744 11.33 20.7857H14.63ZM6.77336 23.0043C6.01935 23.516 5.823 24.542 6.33477 25.2962C6.84655 26.0501 7.87266 26.2464 8.62664 25.7347L6.77336 23.0043ZM13.9066 22.1509C14.6606 21.6391 14.857 20.613 14.3452 19.8591C13.8334 19.1051 12.8073 18.9087 12.0534 19.4205L13.9066 22.1509ZM12.0534 19.4205C11.2993 19.9322 11.103 20.9583 11.6147 21.7123C12.1265 22.4663 13.1526 22.6627 13.9066 22.1509L12.0534 19.4205ZM24.4552 12.9977L23.56 11.6116C23.5495 11.6185 23.5389 11.6254 23.5286 11.6324L24.4552 12.9977ZM30.5448 12.9977L31.4714 11.6324C31.4611 11.6254 31.4505 11.6185 31.44 11.6116L30.5448 12.9977ZM41.0934 22.151C41.8475 22.6627 42.8736 22.4663 43.3853 21.7123C43.897 20.9583 43.7006 19.9322 42.9466 19.4204L41.0934 22.151ZM32.78 41.2502C31.8688 41.2502 31.13 41.9889 31.13 42.9002C31.13 43.8114 31.8688 44.5502 32.78 44.5502V41.2502ZM34.1 42.9002L34.1581 41.251C34.1387 41.2504 34.1194 41.2502 34.1 41.2502V42.9002ZM42.02 35.539L43.6689 35.6014C43.6696 35.5805 43.67 35.5596 43.67 35.539H42.02ZM43.67 20.7857C43.67 19.8744 42.9312 19.1357 42.02 19.1357C41.1088 19.1357 40.37 19.8744 40.37 20.7857H43.67ZM46.3738 25.7327C47.128 26.2444 48.154 26.0477 48.6655 25.2936C49.177 24.5394 48.9804 23.5133 48.2262 23.0018L46.3738 25.7327ZM42.9466 19.4204C42.1925 18.9089 41.1662 19.1053 40.6545 19.8595C40.143 20.6136 40.3392 21.6394 41.0934 22.151L42.9466 19.4204ZM23.87 42.9002V37.992H20.57V42.9002H23.87ZM23.8689 38.0549C23.9415 36.1528 25.5396 34.6678 27.4419 34.7349L27.5581 31.4368C23.8381 31.3059 20.7133 34.2093 20.5712 37.9288L23.8689 38.0549ZM27.5581 34.7349C29.4604 34.6678 31.0585 36.1528 31.1311 38.0549L34.4289 37.9288C34.2868 34.2093 31.1619 31.3059 27.4419 31.4368L27.5581 34.7349ZM31.13 37.992V42.9002H34.43V37.992H31.13ZM22.22 44.5502H32.78V41.2502H22.22V44.5502ZM22.22 41.2502H20.9V44.5502H22.22V41.2502ZM20.8419 41.251C17.5333 41.3676 14.7543 38.7846 14.6288 35.4765L11.3312 35.6014C11.5255 40.7274 15.8315 44.7297 20.9581 44.5491L20.8419 41.251ZM14.63 35.539V20.7857H11.33V35.539H14.63ZM8.62664 25.7347L13.9066 22.1509L12.0534 19.4205L6.77336 23.0043L8.62664 25.7347ZM13.9066 22.1509L25.3818 14.363L23.5286 11.6324L12.0534 19.4205L13.9066 22.1509ZM25.3504 14.3838C26.6589 13.5387 28.3411 13.5387 29.6496 14.3838L31.44 11.6116C29.0418 10.0627 25.9582 10.0627 23.56 11.6116L25.3504 14.3838ZM29.6182 14.363L41.0934 22.151L42.9466 19.4204L31.4714 11.6324L29.6182 14.363ZM32.78 44.5502H34.1V41.2502H32.78V44.5502ZM34.0419 44.5491C39.1686 44.7297 43.4744 40.7274 43.6689 35.6014L40.3711 35.4765C40.2457 38.7846 37.4667 41.3676 34.1581 41.251L34.0419 44.5491ZM43.67 35.539V20.7857H40.37V35.539H43.67ZM48.2262 23.0018L42.9466 19.4204L41.0934 22.151L46.3738 25.7327L48.2262 23.0018Z" fill="#222222"/>
</svg>
