<svg width="45" height="45" viewBox="0 0 45 45" fill="none" xmlns="http://www.w3.org/2000/svg">
<path d="M15.7624 23.1084C14.9523 23.1084 14.2932 23.7675 14.2932 24.5776C14.2932 25.3877 14.9523 26.0468 15.7624 26.0468C16.5725 26.0468 17.2316 25.3877 17.2316 24.5776C17.2316 23.7675 16.5726 23.1084 15.7624 23.1084Z" fill="#333333"/>
<path d="M33.3928 23.1084C32.5827 23.1084 31.9236 23.7675 31.9236 24.5776C31.9236 25.3877 32.5827 26.0468 33.3928 26.0468C34.2029 26.0468 34.862 25.3877 34.862 24.5776C34.862 23.7675 34.2029 23.1084 33.3928 23.1084Z" fill="#333333"/>
<path d="M34.5531 28.2791L35.8884 26.9429C37.0366 25.796 37.0377 23.9355 35.8884 22.7873L23.8275 10.7263L21.0575 13.4967C20.6749 13.8792 20.0551 13.8793 19.6725 13.4967C19.2899 13.1144 19.2899 12.4942 19.6725 12.1116L22.4425 9.34123L21.463 8.3617C20.3176 7.21569 18.459 7.21101 17.3073 8.36211L15.9707 9.69773L15.2961 9.21725C13.3921 7.86171 10.7147 8.02741 8.99653 9.74683C7.29971 11.444 7.07717 14.0935 8.46731 16.0471L8.94685 16.7218L7.61155 18.058C6.46335 19.2049 6.46217 21.0654 7.61155 22.2135L8.59101 23.193L11.361 20.4229C11.7436 20.0403 12.3635 20.0403 12.7461 20.4229C13.1286 20.8052 13.1286 21.4257 12.7461 21.808L9.97605 24.5781L22.0369 36.6392C23.1823 37.7853 25.0409 37.79 26.1927 36.6389L27.5292 35.3029L28.2045 35.785C30.0877 37.131 32.7667 36.9916 34.5034 35.2542C36.2003 33.5569 36.4229 30.9074 35.0327 28.9538L34.5531 28.2791ZM14.1317 17.6525L16.9017 14.882C17.2843 14.4995 17.9041 14.4995 18.2868 14.882C18.6693 15.2643 18.6693 15.8845 18.2868 16.2671L15.5167 19.0376C15.1342 19.4201 14.5144 19.4202 14.1317 19.0376C13.7491 18.6553 13.7491 18.035 14.1317 17.6525ZM17.2582 26.824C15.6379 26.824 14.3198 25.5059 14.3198 23.8855C14.3198 22.2652 15.6379 20.9471 17.2582 20.9471C18.8785 20.9471 20.1966 22.2652 20.1966 23.8855C20.1966 25.5059 18.8786 26.824 17.2582 26.824ZM24.1145 30.7419C24.1145 31.2829 23.6757 31.7213 23.135 31.7213C22.5943 31.7213 22.1555 31.2829 22.1555 30.7419V17.0291C22.1555 16.4881 22.5943 16.0497 23.135 16.0497C23.6757 16.0497 24.1145 16.4881 24.1145 17.0291V30.7419ZM29.0118 26.824C27.3915 26.824 26.0734 25.5059 26.0734 23.8855C26.0734 22.2652 27.3915 20.9471 29.0118 20.9471C30.6321 20.9471 31.9502 22.2652 31.9502 23.8855C31.9502 25.5059 30.6321 26.824 29.0118 26.824Z" fill="#333333"/>
</svg>
