<svg width="18" height="18" viewBox="0 0 18 18" fill="none" xmlns="http://www.w3.org/2000/svg">
<path d="M15.2024 12.1988L15.7316 9.1389C15.8637 8.37465 15.276 7.67565 14.5013 7.67565H10.6154C10.2303 7.67565 9.93705 7.32996 9.99938 6.94949L10.4964 3.91607C10.5771 3.42326 10.5541 2.919 10.4287 2.43564C10.3248 2.03523 10.0159 1.71371 9.6096 1.5832L9.50085 1.54826C9.2553 1.46939 8.98733 1.48774 8.7558 1.59929C8.50103 1.72208 8.31458 1.94605 8.2455 2.21242L7.88873 3.58781C7.77518 4.02542 7.60988 4.44784 7.39664 4.84697C7.08512 5.43013 6.60349 5.89685 6.10283 6.32827L5.02379 7.25812C4.71954 7.52033 4.55976 7.91295 4.59438 8.3133L5.20351 15.3578C5.25938 16.004 5.7996 16.5 6.44744 16.5H9.9339C12.5449 16.5 14.7731 14.6808 15.2024 12.1988Z" fill="#474747"/>
<path fill-rule="evenodd" clip-rule="evenodd" d="M2.22575 7.11381C2.5267 7.10083 2.78446 7.32723 2.81041 7.62735L3.53911 16.0547C3.58591 16.5961 3.15951 17.0627 2.61503 17.0627C2.10217 17.0627 1.6875 16.6466 1.6875 16.1347V7.6758C1.6875 7.37457 1.9248 7.1268 2.22575 7.11381Z" fill="#474747"/>
</svg>
