<svg width="28" height="20" viewBox="0 0 28 20" fill="none" xmlns="http://www.w3.org/2000/svg">
<path fill-rule="evenodd" clip-rule="evenodd" d="M11.1838 13.4206V5.56402C13.9729 6.87642 16.133 8.14423 18.6878 9.51109C16.5807 10.6797 13.9729 11.9909 11.1838 13.4206ZM26.7274 1.6566C26.2463 1.02273 25.4263 0.529324 24.5533 0.365972C21.9874 -0.121298 5.97938 -0.122684 3.41481 0.365972C2.71475 0.497208 2.09137 0.814425 1.55587 1.30728C-0.700508 3.40154 0.00653265 14.6324 0.550406 16.4516C0.77911 17.2391 1.07477 17.807 1.44711 18.1797C1.92683 18.6726 2.58365 19.0119 3.3381 19.1641C5.45084 19.6011 16.3353 19.8455 24.5087 19.2297C25.2617 19.0985 25.9283 18.7482 26.4541 18.2344C28.5403 16.1485 28.3981 4.28699 26.7274 1.6566Z" fill="#222222"/>
</svg>
