<svg width="45" height="45" viewBox="0 0 45 45" fill="none" xmlns="http://www.w3.org/2000/svg">
<g clip-path="url(#clip0_37_51)">
<path d="M29.1833 15.9081C28.6377 16.2047 27.9565 16.0033 27.6636 15.4613C27.3669 14.9157 27.5684 14.2345 28.114 13.9415C30.6921 12.5426 31.8933 10.7335 32.135 8.96473C32.2632 8.01991 32.1167 7.07142 31.7615 6.19251C31.3989 5.30262 30.824 4.4933 30.0952 3.84144C28.678 2.57435 26.6895 1.90785 24.613 2.4242C23.7708 2.63294 23.042 3.05409 22.4048 3.64735C21.7273 4.27723 21.1414 5.10121 20.6287 6.07533C20.3394 6.62464 19.6619 6.83338 19.1162 6.54774C18.5669 6.25843 18.3582 5.58094 18.6438 5.03529C19.2737 3.84144 20.0098 2.81605 20.8813 2.00306C21.7932 1.15711 22.8516 0.549204 24.082 0.245249C26.9385 -0.461538 29.6594 0.439341 31.593 2.16786C32.5745 3.04676 33.3545 4.14173 33.8452 5.35023C34.3396 6.56971 34.541 7.91004 34.3542 9.26869C34.021 11.693 32.4683 14.1246 29.1833 15.9081ZM20.592 24.7594C16.344 19.0538 16.2415 13.6486 21.3977 8.62416L17.6843 6.57337C14.7107 5.41615 9.25415 13.9452 11.3635 16.223L14.2566 20.515L13.6597 21.7601C13.4949 22.13 13.656 22.39 14.0588 22.5695L14.4507 22.6757L6.92505 37.5695L8.44849 40.8178L11.4954 39.9205L12.2791 38.3971L11.5283 36.9909L13.1836 36.6356L13.5681 35.8886L12.7039 34.5702L13.2715 33.4679L14.9231 33.2592L15.4614 32.2155L14.5386 31.0106L15.1282 29.868L16.8127 29.5934L19.1052 25.2172L19.4934 25.4296C20.1672 25.8397 20.5151 25.5761 20.592 24.7594ZM28.5864 28.3373L27.4658 32.5194L25.9094 33.1347L25.5835 34.3541L26.7188 35.3173L26.4221 36.4269L24.884 36.9689L24.5691 38.1408L25.6714 39.2211L25.459 40.0158L23.9465 40.7006L24.9573 41.8908L24.5215 43.5131L21.7932 45.0035L19.6619 42.2094L23.7268 27.0372L22.7417 26.7736C22.5403 26.7186 22.4158 26.5099 22.4707 26.3048L22.8845 24.7631C19.9036 22.5035 18.4277 18.5924 19.4531 14.7582C20.7715 9.83265 25.7446 6.85902 30.6738 7.96498C30.6958 8.22865 30.6921 8.49598 30.6555 8.76332C30.564 9.42982 30.2747 10.1146 29.74 10.7775C29.6667 10.8654 29.5898 10.9569 29.5093 11.0448C27.9346 10.9423 26.4587 11.9603 26.0339 13.5424C25.8508 14.2235 25.8911 14.912 26.1072 15.5309C26.1584 15.7506 26.2427 15.963 26.3525 16.1718C26.6125 16.6478 26.9934 17.0104 27.4402 17.2411C27.7332 17.4352 28.0627 17.5817 28.418 17.6805C30.1868 18.153 31.9995 17.1349 32.5269 15.3954C33.0615 14.923 33.5266 14.4249 33.9258 13.9122C34.7022 12.9125 35.2332 11.8505 35.5481 10.7702C37.6868 13.0773 38.6279 16.3988 37.7527 19.6654C36.7273 23.4996 33.4863 26.151 29.7803 26.6161L29.3665 28.1578C29.3115 28.3593 29.1028 28.4838 28.8977 28.4288L28.5864 28.3373Z" fill="#333333"/>
</g>
<defs>
<clipPath id="clip0_37_51">
<rect width="45" height="45" fill="white"/>
</clipPath>
</defs>
</svg>
