<svg width="45" height="45" viewBox="0 0 45 45" fill="none" xmlns="http://www.w3.org/2000/svg">
<path d="M16.9511 35.0999C16.9511 35.8456 17.5555 36.4499 18.3011 36.4499C19.0467 36.4499 19.6511 35.8456 19.6511 35.0999H16.9511ZM25.3535 35.0999C25.3535 35.8456 25.958 36.4499 26.7035 36.4499C27.4491 36.4499 28.0535 35.8456 28.0535 35.0999H25.3535ZM18.3011 36.4499C19.0467 36.4499 19.6511 35.8456 19.6511 35.0999C19.6511 34.3543 19.0467 33.7499 18.3011 33.7499V36.4499ZM14.0999 35.0999L14.0862 36.4499H14.0999V35.0999ZM10.4423 31.9553L9.09324 32.0053C9.09529 32.0609 9.1008 32.1164 9.10971 32.1714L10.4423 31.9553ZM9.9581 18.8892L11.3072 18.8392C11.3049 18.7774 11.2984 18.7159 11.2877 18.6551L9.9581 18.8892ZM11.9597 14.8356L11.3459 13.6331L11.3373 13.6376L11.9597 14.8356ZM20.8427 10.3014L21.4565 11.5038L21.4592 11.5024L20.8427 10.3014ZM24.1637 10.3014L23.5472 11.5024L23.5499 11.5038L24.1637 10.3014ZM33.0467 14.8356L33.6692 13.6376L33.6605 13.6331L33.0467 14.8356ZM35.0483 18.8892L33.7187 18.6551C33.7081 18.7159 33.7016 18.7773 33.6992 18.839L35.0483 18.8892ZM34.5623 31.9553L35.8949 32.1714C35.9039 32.1165 35.9093 32.0611 35.9114 32.0055L34.5623 31.9553ZM30.9047 35.0999V36.4501L30.9184 36.4499L30.9047 35.0999ZM26.7035 33.7499C25.958 33.7499 25.3535 34.3543 25.3535 35.0999C25.3535 35.8456 25.958 36.4499 26.7035 36.4499V33.7499ZM18.3011 33.7499C17.5555 33.7499 16.9511 34.3543 16.9511 35.0999C16.9511 35.8456 17.5555 36.4499 18.3011 36.4499V33.7499ZM26.7035 36.4499C27.4491 36.4499 28.0535 35.8456 28.0535 35.0999C28.0535 34.3543 27.4491 33.7499 26.7035 33.7499V36.4499ZM19.6511 35.0999V30.9005H16.9511V35.0999H19.6511ZM19.6511 30.9005C19.6511 29.3258 20.9277 28.0493 22.5023 28.0493V25.3493C19.4364 25.3493 16.9511 27.8347 16.9511 30.9005H19.6511ZM22.5023 28.0493C24.077 28.0493 25.3535 29.3258 25.3535 30.9005H28.0535C28.0535 27.8347 25.5681 25.3493 22.5023 25.3493V28.0493ZM25.3535 30.9005V35.0999H28.0535V30.9005H25.3535ZM18.3011 33.7499H14.0999V36.4499H18.3011V33.7499ZM14.1137 33.75C12.9487 33.7382 11.9614 32.8893 11.7749 31.7393L9.10971 32.1714C9.50647 34.6185 11.6072 36.4247 14.0862 36.4499L14.1137 33.75ZM11.7914 31.9054L11.3072 18.8392L8.60904 18.9391L9.09324 32.0053L11.7914 31.9054ZM11.2877 18.6551C11.1005 17.5923 11.6246 16.531 12.5821 16.0335L11.3373 13.6376C9.33359 14.6787 8.23703 16.8994 8.62855 19.1232L11.2877 18.6551ZM12.5735 16.038L21.4565 11.5038L20.2289 9.09894L11.3459 13.6331L12.5735 16.038ZM21.4592 11.5024C22.1146 11.166 22.8919 11.166 23.5472 11.5024L24.7802 9.10036C23.3509 8.36661 21.6556 8.36661 20.2262 9.10036L21.4592 11.5024ZM23.5499 11.5038L32.4329 16.038L33.6605 13.6331L24.7775 9.09894L23.5499 11.5038ZM32.4243 16.0335C33.3819 16.531 33.9059 17.5923 33.7187 18.6551L36.3778 19.1232C36.7693 16.8994 35.6728 14.6787 33.6692 13.6376L32.4243 16.0335ZM33.6992 18.839L33.2132 31.9052L35.9114 32.0055L36.3974 18.9393L33.6992 18.839ZM33.2298 31.7393C33.0433 32.8893 32.056 33.7382 30.8909 33.75L30.9184 36.4499C33.3974 36.4247 35.4982 34.6185 35.8949 32.1714L33.2298 31.7393ZM30.9047 33.7499H26.7035V36.4499L30.9047 36.4501V33.7499ZM18.3011 36.4499H26.7035V33.7499H18.3011V36.4499Z" fill="#333333"/>
</svg>
